<svg width="24" height="24" viewBox="0 0 24 24" fill="none" xmlns="http://www.w3.org/2000/svg">
<path d="M15.7162 16.2236H8.49622" stroke="url(#paint0_linear_719_2826)" stroke-width="1.5" stroke-linecap="round" stroke-linejoin="round"/>
<path d="M15.7162 12.0371H8.49622" stroke="url(#paint1_linear_719_2826)" stroke-width="1.5" stroke-linecap="round" stroke-linejoin="round"/>
<path d="M11.2513 7.86035H8.49634" stroke="url(#paint2_linear_719_2826)" stroke-width="1.5" stroke-linecap="round" stroke-linejoin="round"/>
<path fill-rule="evenodd" clip-rule="evenodd" d="M15.9086 2.75C15.9086 2.75 8.23161 2.754 8.21961 2.754C5.45961 2.771 3.75061 4.587 3.75061 7.357V16.553C3.75061 19.337 5.47261 21.16 8.25661 21.16C8.25661 21.16 15.9326 21.157 15.9456 21.157C18.7056 21.14 20.4156 19.323 20.4156 16.553V7.357C20.4156 4.573 18.6926 2.75 15.9086 2.75Z" stroke="url(#paint3_linear_719_2826)" stroke-width="1.5" stroke-linecap="round" stroke-linejoin="round"/>
<defs>
<linearGradient id="paint0_linear_719_2826" x1="8.49622" y1="16.7236" x2="11.6886" y2="12.6611" gradientUnits="userSpaceOnUse">
<stop stop-color="#5B32D0"/>
<stop offset="0.978464" stop-color="#E04EF8"/>
</linearGradient>
<linearGradient id="paint1_linear_719_2826" x1="8.49622" y1="12.5371" x2="11.6886" y2="8.47454" gradientUnits="userSpaceOnUse">
<stop stop-color="#5B32D0"/>
<stop offset="0.978464" stop-color="#E04EF8"/>
</linearGradient>
<linearGradient id="paint2_linear_719_2826" x1="8.49634" y1="8.36035" x2="11.0784" y2="7.10653" gradientUnits="userSpaceOnUse">
<stop stop-color="#5B32D0"/>
<stop offset="0.978464" stop-color="#E04EF8"/>
</linearGradient>
<linearGradient id="paint3_linear_719_2826" x1="3.75061" y1="21.16" x2="22.5732" y2="18.1568" gradientUnits="userSpaceOnUse">
<stop stop-color="#5B32D0"/>
<stop offset="0.978464" stop-color="#E04EF8"/>
</linearGradient>
</defs>
</svg>
