<svg width="366" height="209" viewBox="0 0 366 209" fill="none" xmlns="http://www.w3.org/2000/svg">
<path d="M359.201 209H6.7904C3.03664 209 0 205.956 0 202.192C0 198.429 3.03664 195.384 6.7904 195.384H359.21C362.963 195.384 366 198.429 366 202.192C366 205.956 362.963 209 359.21 209H359.201Z" fill="#3F3F50"/>
<path d="M171.203 187.629H240.355V192.12C240.355 194.002 238.833 195.528 236.956 195.528H171.194V187.629H171.203Z" fill="#374ACC"/>
<path d="M178.402 195.52H87.6571C85.5855 195.52 83.6997 193.833 83.443 191.756L75.2007 124.183C74.9439 122.106 76.4224 120.419 78.4941 120.419H169.239C171.311 120.419 173.197 122.106 173.453 124.183L181.696 191.756C181.953 193.833 180.474 195.52 178.402 195.52Z" fill="#374ACC"/>
<path d="M173.09 195.52H82.3449C80.2732 195.52 78.3875 193.833 78.1307 191.756L69.8884 124.183C69.6317 122.106 71.1101 120.419 73.1818 120.419H163.927C165.999 120.419 167.884 122.106 168.141 124.183L176.384 191.756C176.64 193.833 175.162 195.52 173.09 195.52Z" fill="#4450E4"/>
<path d="M69.8974 124.183C70.5526 124.005 72.9607 145.068 86.692 164.036C89.0646 167.32 93.3496 173.143 100.636 178.824C100.636 178.824 108.037 184.602 135.624 195.52H93.0928C90.729 195.52 88.3652 195.52 86.0103 195.52C84.1245 195.52 81.7873 195.937 80.1052 194.889C78.7152 194.019 78.1044 192.298 77.9096 190.664C77.7679 189.51 77.7856 188.339 77.6528 187.185C77.52 186.04 77.3076 184.904 77.1659 183.759C76.8649 181.256 76.555 178.761 76.254 176.258C75.7583 172.167 75.2536 168.084 74.7578 163.992C74.2178 159.58 73.6866 155.169 73.1466 150.766C72.6508 146.675 72.1462 142.574 71.6504 138.482C71.2697 135.34 70.9421 132.189 70.4995 129.056C69.9948 125.452 69.7469 124.227 69.9063 124.183H69.8974Z" fill="#5D6FF4"/>
<path d="M73.1913 120.419H163.937C166.008 120.419 167.894 122.106 168.151 124.183L176.393 191.756" stroke="#101016" stroke-linecap="round" stroke-linejoin="round"/>
<path d="M125.77 156.092C125.77 158.986 123.433 161.329 120.547 161.329C117.66 161.329 115.323 158.986 115.323 156.092C115.323 153.198 117.66 150.855 120.547 150.855C123.433 150.855 125.77 153.198 125.77 156.092Z" fill="white"/>
<path d="M240.576 14.4586H135.79C130.675 14.4586 126.529 18.6154 126.529 23.743V93.8639C126.529 98.9915 130.675 103.148 135.79 103.148H240.576C245.691 103.148 249.837 98.9915 249.837 93.8639V23.743C249.837 18.6154 245.691 14.4586 240.576 14.4586Z" fill="white"/>
<path opacity="0.5" d="M135.79 14.4586H240.576C245.684 14.4586 249.837 18.6215 249.837 23.743V27.9414H126.529V23.743C126.529 18.6215 130.681 14.4586 135.79 14.4586Z" fill="#D3D3EA"/>
<path d="M229.2 23.2372H156.259C155.134 23.2372 154.231 22.3229 154.231 21.2045C154.231 20.0773 155.143 19.1719 156.259 19.1719H229.2C230.325 19.1719 231.228 20.0862 231.228 21.2045C231.228 22.3318 230.316 23.2372 229.2 23.2372Z" fill="white"/>
<path d="M135.382 21.2044C135.382 22.1186 134.639 22.8642 133.727 22.8642C132.815 22.8642 132.071 22.1186 132.071 21.2044C132.071 20.2901 132.815 19.5446 133.727 19.5446C134.639 19.5446 135.382 20.2901 135.382 21.2044Z" fill="white"/>
<path d="M141.571 21.2044C141.571 22.1186 140.827 22.8642 139.915 22.8642C139.003 22.8642 138.26 22.1186 138.26 21.2044C138.26 20.2901 139.003 19.5446 139.915 19.5446C140.827 19.5446 141.571 20.2901 141.571 21.2044Z" fill="white"/>
<path d="M147.662 21.2044C147.662 22.1186 146.918 22.8642 146.006 22.8642C145.094 22.8642 144.351 22.1186 144.351 21.2044C144.351 20.2901 145.094 19.5446 146.006 19.5446C146.918 19.5446 147.662 20.2901 147.662 21.2044Z" fill="white"/>
<path d="M196.983 47.3533L186.554 57.8093L176.133 47.3533L169.839 53.6642L180.268 64.1113L169.839 74.5673L176.133 80.8782L186.554 70.4222L196.983 80.8782L203.277 74.5673L192.848 64.1113L203.277 53.6642L196.983 47.3533Z" fill="#D3D3EA"/>
<path d="M240.576 14.4586H135.79C130.675 14.4586 126.529 18.6154 126.529 23.743V93.8639C126.529 98.9915 130.675 103.148 135.79 103.148H240.576C245.691 103.148 249.837 98.9915 249.837 93.8639V23.743C249.837 18.6154 245.691 14.4586 240.576 14.4586Z" stroke="#101016" stroke-linecap="round" stroke-linejoin="round"/>
<path d="M112.289 16.2758L125.985 21.9742" stroke="#FF7129" stroke-linecap="round" stroke-linejoin="round"/>
<path d="M111.695 1.24846L129.03 17.7491" stroke="#FF7129" stroke-linecap="round" stroke-linejoin="round"/>
<path d="M126.755 1L133.138 14.4206" stroke="#FF7129" stroke-linecap="round" stroke-linejoin="round"/>
<path d="M272.78 78.4724C273.615 76.2742 274.455 74.5717 275.301 73.359C276.147 72.1464 277.261 71.1667 278.655 70.42C279.465 69.9601 280.317 69.6255 281.211 69.4105C282.099 69.1954 282.945 68.9326 283.743 68.622C284.541 68.3114 285.274 67.8932 285.935 67.3795C286.597 66.8658 287.139 66.0713 287.55 64.99C288.241 63.1681 288.229 61.6986 287.502 60.5875C286.776 59.4764 285.727 58.658 284.351 58.1324C282.379 57.3797 280.818 57.4096 279.656 58.222C278.494 59.0344 277.469 60.3366 276.576 62.1287L269.39 59.3808C270.087 57.5589 271.011 56.0117 272.173 54.7513C273.335 53.4909 274.663 52.547 276.153 51.9198C277.642 51.2986 279.269 50.9999 281.02 51.0297C282.772 51.0596 284.577 51.43 286.436 52.1408C290.446 53.676 293.299 55.7071 295.003 58.2339C296.701 60.7607 296.85 63.867 295.444 67.5527C294.991 68.7474 294.473 69.7391 293.889 70.5455C293.305 71.3459 292.638 72.021 291.875 72.5586C291.119 73.1022 290.261 73.5502 289.32 73.9146C288.372 74.279 287.324 74.6254 286.18 74.954C285.119 75.2766 284.237 75.6111 283.534 75.9576C282.825 76.304 282.23 76.7282 281.747 77.224C281.259 77.7198 280.853 78.2813 280.532 78.9025C280.21 79.5238 279.894 80.2466 279.578 81.065L272.78 78.4665V78.4724ZM268.455 89.1712L271.237 81.8535L278.756 84.7328L275.974 92.0504L268.455 89.1712Z" fill="#6E6E88"/>
<path d="M223.743 148.142C222.955 146.109 222.468 144.414 222.291 143.056C222.114 141.698 222.274 140.322 222.761 138.946C223.035 138.121 223.407 137.366 223.885 136.656C224.363 135.955 224.779 135.245 225.133 134.535C225.487 133.825 225.735 133.079 225.868 132.316C226.001 131.552 225.877 130.665 225.487 129.671C224.832 127.984 223.903 126.99 222.716 126.679C221.53 126.369 220.299 126.466 219.033 126.963C217.21 127.674 216.156 128.677 215.873 129.964C215.581 131.251 215.687 132.786 216.183 134.57L209.543 137.171C208.888 135.485 208.56 133.851 208.578 132.254C208.587 130.665 208.914 129.183 209.552 127.824C210.189 126.466 211.119 125.25 212.34 124.176C213.562 123.102 215.032 122.233 216.749 121.558C220.459 120.102 223.672 119.712 226.408 120.386C229.144 121.061 231.171 123.102 232.508 126.502C232.942 127.603 233.199 128.614 233.305 129.52C233.402 130.434 233.358 131.313 233.181 132.156C232.995 132.999 232.694 133.842 232.269 134.686C231.844 135.529 231.339 136.417 230.764 137.357C230.233 138.236 229.843 139.017 229.569 139.701C229.303 140.384 229.153 141.041 229.126 141.689C229.099 142.337 229.17 142.967 229.339 143.597C229.507 144.227 229.737 144.92 230.029 145.674L223.752 148.133L223.743 148.142ZM227.417 158.181L224.779 151.417L231.729 148.692L234.367 155.456L227.417 158.181Z" fill="#8D8DAC"/>
<path d="M291.076 195.384H262.834L260.948 165.232H292.961L291.076 195.384Z" fill="#3F3F50"/>
<path d="M289.127 165.232H264.781V139.527C264.781 132.781 270.235 127.323 276.954 127.323C283.683 127.323 289.127 132.79 289.127 139.527V165.232Z" fill="#94E261"/>
<mask id="mask0_61_1739" style="mask-type:luminance" maskUnits="userSpaceOnUse" x="264" y="127" width="26" height="39">
<path d="M289.127 165.232H264.781V139.527C264.781 132.781 270.235 127.323 276.954 127.323C283.683 127.323 289.127 132.79 289.127 139.527V165.232Z" fill="white"/>
</mask>
<g mask="url(#mask0_61_1739)">
<path d="M269.226 131.051C269.226 134.468 267.181 134.468 267.181 137.885C267.181 141.303 269.226 141.303 269.226 144.72C269.226 148.137 267.181 148.137 267.181 151.554C267.181 154.972 269.226 154.972 269.226 158.398C269.226 161.824 267.181 161.815 267.181 165.241" stroke="#101016" stroke-width="0.5" stroke-linecap="round" stroke-linejoin="round"/>
<path d="M274.582 127.837C274.582 131.574 272.342 131.574 272.342 135.311C272.342 139.048 274.582 139.048 274.582 142.794C274.582 146.539 272.342 146.53 272.342 150.267C272.342 154.004 274.582 154.004 274.582 157.75C274.582 161.496 272.342 161.487 272.342 165.232" stroke="#101016" stroke-width="0.5" stroke-linecap="round" stroke-linejoin="round"/>
<path d="M282.461 128.148C282.461 131.858 280.239 131.858 280.239 135.559C280.239 139.261 282.461 139.27 282.461 142.98C282.461 146.69 280.239 146.69 280.239 150.391C280.239 154.093 282.461 154.102 282.461 157.812C282.461 161.522 280.239 161.522 280.239 165.232" stroke="#101016" stroke-width="0.5" stroke-linecap="round" stroke-linejoin="round"/>
<path d="M287.967 132.622C287.967 135.879 286.019 135.879 286.019 139.146C286.019 142.412 287.967 142.403 287.967 145.67C287.967 148.936 286.019 148.927 286.019 152.193C286.019 155.46 287.967 155.46 287.967 158.717C287.967 161.975 286.019 161.984 286.019 165.241" stroke="#101016" stroke-width="0.5" stroke-linecap="round" stroke-linejoin="round"/>
</g>
<path d="M292.961 165.232L291.076 195.384H262.834C266.605 194.354 274.033 191.789 280.992 185.23C289.013 177.667 291.926 169.04 292.961 165.241V165.232Z" fill="#6E6E88"/>
<path d="M291.341 170.025C290.199 172.883 288.26 176.815 284.993 180.881C281.735 184.937 278.318 187.68 275.786 189.41" stroke="#101016" stroke-width="0.5" stroke-linecap="round" stroke-linejoin="round"/>
</svg>
