<svg width="60" height="58" viewBox="0 0 60 58" fill="none" xmlns="http://www.w3.org/2000/svg">
<path opacity="0.5" d="M29.0671 50.5589L27.1639 52.4515C26.6461 52.9664 26.6461 53.8012 27.1639 54.3161L29.0671 56.2086C29.5849 56.7235 30.4244 56.7235 30.9422 56.2086L32.8454 54.3161C33.3632 53.8012 33.3632 52.9664 32.8454 52.4515L30.9422 50.5589C30.4244 50.044 29.5849 50.044 29.0671 50.5589Z" fill="currentColor"/>
<path opacity="0.75" d="M31.1585 33.1448L34.1695 36.1389C34.8084 36.7743 34.8084 37.8047 34.1695 38.4385L31.1585 41.4326C30.5195 42.068 29.4833 42.068 28.846 41.4326L25.8366 38.4401C25.1977 37.8047 25.1977 36.776 25.8366 36.1406L28.8476 33.1464C29.4866 32.5111 30.5228 32.5111 31.1618 33.1464L31.1585 33.1448Z" fill="currentColor"/>
<path opacity="0.6" d="M20.9737 41.9759L18.5333 44.4027C18.0155 44.9176 18.0155 45.7524 18.5333 46.2673L20.9725 48.6929C21.4903 49.2078 22.3299 49.2078 22.8477 48.6929L25.2881 46.2661C25.8059 45.7512 25.8059 44.9164 25.2881 44.4015L22.8488 41.9759C22.331 41.461 21.4915 41.461 20.9737 41.9759Z" fill="currentColor"/>
<path opacity="0.6" d="M37.1522 41.9873L34.7129 44.4129C34.1951 44.9278 34.1951 45.7626 34.7129 46.2775L37.1534 48.7043C37.6712 49.2192 38.5107 49.2192 39.0285 48.7043L41.4678 46.2787C41.9856 45.7638 41.9856 44.929 41.4678 44.4141L39.0273 41.9873C38.5095 41.4724 37.67 41.4724 37.1522 41.9873Z" fill="currentColor"/>
<path d="M24.2289 5.14675L17.121 12.2132C16.6029 12.7284 16.6029 13.5629 17.121 14.0781L20.9679 17.9035C21.4861 18.4187 22.3253 18.4187 22.8434 17.9035L29.0128 11.7688C29.5309 11.2535 30.3701 11.2535 30.8882 11.7688L37.0973 17.943C37.6154 18.4583 38.4547 18.4583 38.9728 17.943L42.8214 14.116C43.3395 13.6008 43.3395 12.7663 42.8214 12.251L30.8899 0.386407C30.3718 -0.128802 29.5325 -0.128802 29.0144 0.386407L24.2289 5.1451V5.14675Z" fill="currentColor"/>
<path opacity="0.85" d="M20.9705 24.4836L17.1231 28.3094C16.6053 28.8243 16.6053 29.6591 17.1231 30.174L20.9693 33.9987C21.4871 34.5136 22.3266 34.5136 22.8444 33.9987L26.6918 30.1728C27.2096 29.6579 27.2096 28.8231 26.6918 28.3082L22.8456 24.4836C22.3278 23.9687 21.4883 23.9687 20.9705 24.4836Z" fill="currentColor"/>
<path opacity="0.9" d="M12.8787 16.4357L9.0313 20.2616C8.5135 20.7764 8.51351 21.6113 9.03131 22.1262L12.8775 25.9508C13.3953 26.4657 14.2348 26.4657 14.7526 25.9508L18.6 22.125C19.1178 21.6101 19.1178 20.7753 18.6 20.2604L14.7538 16.4357C14.236 15.9208 13.3965 15.9208 12.8787 16.4357Z" fill="currentColor"/>
<path opacity="0.85" d="M4.78493 24.4826L0.937557 28.3084C0.419759 28.8233 0.419752 29.6581 0.93755 30.173L4.78376 33.9977C5.30156 34.5126 6.14107 34.5126 6.65886 33.9977L10.5062 30.1719C11.024 29.657 11.024 28.8221 10.5062 28.3073L6.66004 24.4826C6.14224 23.9677 5.30273 23.9677 4.78493 24.4826Z" fill="currentColor"/>
<path opacity="0.85" d="M37.156 24.4846L33.3087 28.3104C32.7909 28.8253 32.7909 29.6601 33.3087 30.175L37.1549 33.9996C37.6727 34.5145 38.5122 34.5145 39.03 33.9996L42.8773 30.1738C43.3951 29.6589 43.3951 28.8241 42.8773 28.3092L39.0311 24.4846C38.5133 23.9697 37.6738 23.9697 37.156 24.4846Z" fill="currentColor"/>
<path opacity="0.9" d="M45.2478 16.4357L41.4004 20.2615C40.8826 20.7764 40.8826 21.6113 41.4004 22.1262L45.2467 25.9508C45.7644 26.4657 46.604 26.4657 47.1218 25.9508L50.9691 22.125C51.4869 21.6101 51.4869 20.7753 50.9691 20.2604L47.1229 16.4357C46.6051 15.9208 45.7656 15.9208 45.2478 16.4357Z" fill="currentColor"/>
<path opacity="0.9" d="M29.0623 16.4357L25.2149 20.2615C24.6971 20.7764 24.6971 21.6113 25.2149 22.1262L29.0611 25.9508C29.5789 26.4657 30.4184 26.4657 30.9362 25.9508L34.7836 22.125C35.3014 21.6101 35.3014 20.7753 34.7836 20.2604L30.9374 16.4357C30.4196 15.9208 29.5801 15.9208 29.0623 16.4357Z" fill="currentColor"/>
<path opacity="0.85" d="M53.3416 24.4836L49.4942 28.3094C48.9764 28.8243 48.9764 29.6591 49.4942 30.174L53.3404 33.9987C53.8582 34.5136 54.6977 34.5136 55.2155 33.9987L59.0629 30.1728C59.5807 29.6579 59.5807 28.8231 59.0629 28.3082L55.2167 24.4836C54.6989 23.9687 53.8594 23.9687 53.3416 24.4836Z" fill="currentColor"/>
<path opacity="0.75" d="M45.2485 33.3892L42.2637 36.3572C41.7459 36.8721 41.7459 37.707 42.2637 38.2219L45.2485 41.1899C45.7663 41.7048 46.6058 41.7048 47.1236 41.1899L50.1083 38.2219C50.6261 37.707 50.6261 36.8721 50.1083 36.3572L47.1236 33.3892C46.6058 32.8743 45.7663 32.8743 45.2485 33.3892Z" fill="currentColor"/>
<path opacity="0.75" d="M12.8754 33.3883L9.89068 36.3563C9.37288 36.8712 9.37288 37.706 9.89068 38.2209L12.8754 41.1889C13.3932 41.7038 14.2327 41.7038 14.7505 41.1889L17.7353 38.2209C18.2531 37.706 18.253 36.8712 17.7352 36.3563L14.7505 33.3883C14.2327 32.8734 13.3932 32.8734 12.8754 33.3883Z" fill="currentColor"/>
</svg>
