<svg xmlns="http://www.w3.org/2000/svg" width="16" height="16" viewBox="0 0 16 16" fill="none">
  <path d="M3.79932 7.3003C3.79932 5.32072 3.79932 4.33023 4.41461 3.71564C5.0292 3.10034 6.01969 3.10034 7.99927 3.10034H10.0992C12.0788 3.10034 13.0693 3.10034 13.6839 3.71564C14.2992 4.33023 14.2992 5.32072 14.2992 7.3003V10.8003C14.2992 12.7798 14.2992 13.7703 13.6839 14.3849C13.0693 15.0002 12.0788 15.0002 10.0992 15.0002H7.99927C6.01969 15.0002 5.0292 15.0002 4.41461 14.3849C3.79932 13.7703 3.79932 12.7798 3.79932 10.8003V7.3003Z" stroke="url(#paint0_linear_200_4778)" stroke-width="1.5"/>
  <path d="M3.80066 12.8999C3.24371 12.8999 2.70957 12.6786 2.31575 12.2848C1.92193 11.891 1.70068 11.3568 1.70068 10.7999V6.59994C1.70068 3.96027 1.70068 2.64008 2.52107 1.82039C3.34077 1 4.66095 1 7.30062 1H10.1006C10.6575 1 11.1917 1.22125 11.5855 1.61507C11.9793 2.00889 12.2006 2.54303 12.2006 3.09998" stroke="url(#paint1_linear_200_4778)" stroke-width="1.5"/>
  <defs>
    <linearGradient id="paint0_linear_200_4778" x1="3.79932" y1="15.0002" x2="15.6733" y2="13.1535" gradientUnits="userSpaceOnUse">
      <stop stop-color="#5B32D0"/>
      <stop offset="0.978464" stop-color="#E04EF8"/>
    </linearGradient>
    <linearGradient id="paint1_linear_200_4778" x1="1.70068" y1="12.8999" x2="13.5747" y2="11.0532" gradientUnits="userSpaceOnUse">
      <stop stop-color="#5B32D0"/>
      <stop offset="0.978464" stop-color="#E04EF8"/>
    </linearGradient>
  </defs>
</svg>