<svg width="23" height="18" viewBox="0 0 23 18" fill="none" xmlns="http://www.w3.org/2000/svg">
<path d="M21.5283 8.33329C21.7114 8.76377 21.7144 9.23731 21.5357 9.66966C20.7405 11.5936 17.9336 17 11.5 17C5.0664 17 2.25946 11.5936 1.46426 9.66966C1.28557 9.23731 1.28857 8.76377 1.47174 8.33329C2.28923 6.41194 5.15506 1 11.5 1C17.8449 1 20.7108 6.41194 21.5283 8.33329Z" stroke="currentColor" stroke-width="1.5" fill="none"/>
<path d="M11.4999 12.7143C13.5513 12.7143 15.2142 11.0514 15.2142 9.00002C15.2142 6.94868 13.5513 5.28574 11.4999 5.28574C9.44859 5.28574 7.78564 6.94868 7.78564 9.00002C7.78564 11.0514 9.44859 12.7143 11.4999 12.7143Z" stroke="currentColor" fill="none" stroke-width="1.5"/>
<path d="M8.99056 9.375C8.76139 9.375 8.57389 9.5625 8.57389 9.79167C8.57389 10.0208 8.76139 10.2083 8.99056 10.2083C9.21973 10.2083 9.40723 10.0208 9.40723 9.79167C9.40723 9.5625 9.21973 9.375 8.99056 9.375ZM8.99056 11.0417C8.76139 11.0417 8.57389 11.2292 8.57389 11.4583C8.57389 11.6875 8.76139 11.875 8.99056 11.875C9.21973 11.875 9.40723 11.6875 9.40723 11.4583C9.40723 11.2292 9.21973 11.0417 8.99056 11.0417ZM8.99056 7.70833C8.76139 7.70833 8.57389 7.89583 8.57389 8.125C8.57389 8.35417 8.76139 8.54167 8.99056 8.54167C9.21973 8.54167 9.40723 8.35417 9.40723 8.125C9.40723 7.89583 9.21973 7.70833 8.99056 7.70833ZM7.74056 7.91667C7.62389 7.91667 7.53223 8.00833 7.53223 8.125C7.53223 8.24167 7.62389 8.33333 7.74056 8.33333C7.85723 8.33333 7.94889 8.24167 7.94889 8.125C7.94889 8.00833 7.85723 7.91667 7.74056 7.91667ZM8.99056 6.04167C8.76139 6.04167 8.57389 6.22917 8.57389 6.45833C8.57389 6.6875 8.76139 6.875 8.99056 6.875C9.21973 6.875 9.40723 6.6875 9.40723 6.45833C9.40723 6.22917 9.21973 6.04167 8.99056 6.04167ZM15.2406 8.33333C15.3572 8.33333 15.4489 8.24167 15.4489 8.125C15.4489 8.00833 15.3572 7.91667 15.2406 7.91667C15.1239 7.91667 15.0322 8.00833 15.0322 8.125C15.0322 8.24167 15.1239 8.33333 15.2406 8.33333ZM12.3239 6.875C12.5531 6.875 12.7406 6.6875 12.7406 6.45833C12.7406 6.22917 12.5531 6.04167 12.3239 6.04167C12.0947 6.04167 11.9072 6.22917 11.9072 6.45833C11.9072 6.6875 12.0947 6.875 12.3239 6.875ZM12.3239 5.41667C12.4406 5.41667 12.5322 5.325 12.5322 5.20833C12.5322 5.09167 12.4406 5 12.3239 5C12.2072 5 12.1156 5.09167 12.1156 5.20833C12.1156 5.325 12.2072 5.41667 12.3239 5.41667ZM7.74056 9.58333C7.62389 9.58333 7.53223 9.675 7.53223 9.79167C7.53223 9.90833 7.62389 10 7.74056 10C7.85723 10 7.94889 9.90833 7.94889 9.79167C7.94889 9.675 7.85723 9.58333 7.74056 9.58333ZM10.6572 12.5C10.5406 12.5 10.4489 12.5917 10.4489 12.7083C10.4489 12.825 10.5406 12.9167 10.6572 12.9167C10.7739 12.9167 10.8656 12.825 10.8656 12.7083C10.8656 12.5917 10.7739 12.5 10.6572 12.5ZM10.6572 5.41667C10.7739 5.41667 10.8656 5.325 10.8656 5.20833C10.8656 5.09167 10.7739 5 10.6572 5C10.5406 5 10.4489 5.09167 10.4489 5.20833C10.4489 5.325 10.5406 5.41667 10.6572 5.41667ZM10.6572 6.875C10.8864 6.875 11.0739 6.6875 11.0739 6.45833C11.0739 6.22917 10.8864 6.04167 10.6572 6.04167C10.4281 6.04167 10.2406 6.22917 10.2406 6.45833C10.2406 6.6875 10.4281 6.875 10.6572 6.875ZM10.6572 9.16667C10.3114 9.16667 10.0322 9.44583 10.0322 9.79167C10.0322 10.1375 10.3114 10.4167 10.6572 10.4167C11.0031 10.4167 11.2822 10.1375 11.2822 9.79167C11.2822 9.44583 11.0031 9.16667 10.6572 9.16667ZM13.9906 9.375C13.7614 9.375 13.5739 9.5625 13.5739 9.79167C13.5739 10.0208 13.7614 10.2083 13.9906 10.2083C14.2197 10.2083 14.4072 10.0208 14.4072 9.79167C14.4072 9.5625 14.2197 9.375 13.9906 9.375ZM13.9906 11.0417C13.7614 11.0417 13.5739 11.2292 13.5739 11.4583C13.5739 11.6875 13.7614 11.875 13.9906 11.875C14.2197 11.875 14.4072 11.6875 14.4072 11.4583C14.4072 11.2292 14.2197 11.0417 13.9906 11.0417ZM13.9906 7.70833C13.7614 7.70833 13.5739 7.89583 13.5739 8.125C13.5739 8.35417 13.7614 8.54167 13.9906 8.54167C14.2197 8.54167 14.4072 8.35417 14.4072 8.125C14.4072 7.89583 14.2197 7.70833 13.9906 7.70833ZM13.9906 6.04167C13.7614 6.04167 13.5739 6.22917 13.5739 6.45833C13.5739 6.6875 13.7614 6.875 13.9906 6.875C14.2197 6.875 14.4072 6.6875 14.4072 6.45833C14.4072 6.22917 14.2197 6.04167 13.9906 6.04167ZM15.2406 9.58333C15.1239 9.58333 15.0322 9.675 15.0322 9.79167C15.0322 9.90833 15.1239 10 15.2406 10C15.3572 10 15.4489 9.90833 15.4489 9.79167C15.4489 9.675 15.3572 9.58333 15.2406 9.58333ZM12.3239 11.0417C12.0947 11.0417 11.9072 11.2292 11.9072 11.4583C11.9072 11.6875 12.0947 11.875 12.3239 11.875C12.5531 11.875 12.7406 11.6875 12.7406 11.4583C12.7406 11.2292 12.5531 11.0417 12.3239 11.0417ZM12.3239 12.5C12.2072 12.5 12.1156 12.5917 12.1156 12.7083C12.1156 12.825 12.2072 12.9167 12.3239 12.9167C12.4406 12.9167 12.5322 12.825 12.5322 12.7083C12.5322 12.5917 12.4406 12.5 12.3239 12.5ZM10.6572 7.5C10.3114 7.5 10.0322 7.77917 10.0322 8.125C10.0322 8.47083 10.3114 8.75 10.6572 8.75C11.0031 8.75 11.2822 8.47083 11.2822 8.125C11.2822 7.77917 11.0031 7.5 10.6572 7.5ZM10.6572 11.0417C10.4281 11.0417 10.2406 11.2292 10.2406 11.4583C10.2406 11.6875 10.4281 11.875 10.6572 11.875C10.8864 11.875 11.0739 11.6875 11.0739 11.4583C11.0739 11.2292 10.8864 11.0417 10.6572 11.0417ZM12.3239 9.16667C11.9781 9.16667 11.6989 9.44583 11.6989 9.79167C11.6989 10.1375 11.9781 10.4167 12.3239 10.4167C12.6697 10.4167 12.9489 10.1375 12.9489 9.79167C12.9489 9.44583 12.6697 9.16667 12.3239 9.16667ZM12.3239 7.5C11.9781 7.5 11.6989 7.77917 11.6989 8.125C11.6989 8.47083 11.9781 8.75 12.3239 8.75C12.6697 8.75 12.9489 8.47083 12.9489 8.125C12.9489 7.77917 12.6697 7.5 12.3239 7.5Z" stroke="none" fill="currentColor"/>
</svg>
