<svg width="17" height="18" viewBox="0 0 17 18" fill="none" xmlns="http://www.w3.org/2000/svg">
<path fill-rule="evenodd" clip-rule="evenodd" d="M3.31418 2.25C2.70632 2.25 2.21313 2.78465 2.21313 3.4428V4.14483C2.21313 4.63235 2.38702 5.10119 2.69807 5.45383L6.1069 9.31824L6.1084 9.31581C6.76647 10.0341 7.13674 11.0051 7.13674 12.0175V15.4464C7.13674 15.6755 7.36159 15.8218 7.54823 15.7137L9.48948 14.5859C9.78255 14.4153 9.96543 14.0838 9.96543 13.7238V12.0085C9.96543 11.0018 10.3304 10.0349 10.9825 9.31824L14.3914 5.45383C14.7017 5.10119 14.8755 4.63235 14.8755 4.14483V3.4428C14.8755 2.78465 14.3831 2.25 13.7752 2.25H3.31418Z" stroke="#3F3F50" stroke-width="1.5" stroke-linecap="round" stroke-linejoin="round"/>
</svg>
