<svg xmlns="http://www.w3.org/2000/svg" width="24" height="24" viewBox="0 0 24 24" fill="none">
  <path d="M7.2001 4.8001C6.56358 4.8001 5.95313 5.05295 5.50304 5.50304C5.05295 5.95313 4.8001 6.56358 4.8001 7.2001V16.8001C4.8001 17.4366 5.05295 18.0471 5.50304 18.4972C5.95313 18.9472 6.56358 19.2001 7.2001 19.2001H16.8001C17.4366 19.2001 18.0471 18.9472 18.4972 18.4972C18.9472 18.0471 19.2001 17.4366 19.2001 16.8001V13.8001C19.2001 13.641 19.2633 13.4884 19.3758 13.3758C19.4884 13.2633 19.641 13.2001 19.8001 13.2001C19.9592 13.2001 20.1118 13.2633 20.2244 13.3758C20.3369 13.4884 20.4001 13.641 20.4001 13.8001V16.8001C20.4001 17.7549 20.0208 18.6706 19.3457 19.3457C18.6706 20.0208 17.7549 20.4001 16.8001 20.4001H7.2001C6.24532 20.4001 5.32964 20.0208 4.65451 19.3457C3.97938 18.6706 3.6001 17.7549 3.6001 16.8001V7.2001C3.6001 6.24532 3.97938 5.32964 4.65451 4.65451C5.32964 3.97938 6.24532 3.6001 7.2001 3.6001H10.2001C10.3592 3.6001 10.5118 3.66331 10.6244 3.77583C10.7369 3.88836 10.8001 4.04097 10.8001 4.2001C10.8001 4.35923 10.7369 4.51184 10.6244 4.62436C10.5118 4.73688 10.3592 4.8001 10.2001 4.8001H7.2001ZM13.2001 4.2001C13.2001 4.04097 13.2633 3.88836 13.3758 3.77583C13.4884 3.66331 13.641 3.6001 13.8001 3.6001H19.8001C19.9592 3.6001 20.1118 3.66331 20.2244 3.77583C20.3369 3.88836 20.4001 4.04097 20.4001 4.2001V10.2001C20.4001 10.3592 20.3369 10.5118 20.2244 10.6244C20.1118 10.7369 19.9592 10.8001 19.8001 10.8001C19.641 10.8001 19.4884 10.7369 19.3758 10.6244C19.2633 10.5118 19.2001 10.3592 19.2001 10.2001V5.6485L14.2249 10.6249C14.1122 10.7376 13.9594 10.8009 13.8001 10.8009C13.6408 10.8009 13.488 10.7376 13.3753 10.6249C13.2626 10.5122 13.1993 10.3594 13.1993 10.2001C13.1993 10.0408 13.2626 9.88796 13.3753 9.7753L18.3517 4.8001H13.8001C13.641 4.8001 13.4884 4.73688 13.3758 4.62436C13.2633 4.51184 13.2001 4.35923 13.2001 4.2001Z" fill="url(#paint0_linear_200_4813)" stroke="url(#paint1_linear_200_4813)" stroke-width="0.5"/>
  <defs>
    <linearGradient id="paint0_linear_200_4813" x1="3.6001" y1="20.4001" x2="22.4719" y2="17.0738" gradientUnits="userSpaceOnUse">
      <stop stop-color="#5B32D0"/>
      <stop offset="0.978464" stop-color="#E04EF8"/>
    </linearGradient>
    <linearGradient id="paint1_linear_200_4813" x1="3.6001" y1="20.4001" x2="22.4719" y2="17.0738" gradientUnits="userSpaceOnUse">
      <stop stop-color="#5B32D0"/>
      <stop offset="0.978464" stop-color="#E04EF8"/>
    </linearGradient>
  </defs>
</svg>