<svg width="21" height="20" viewBox="0 0 21 20" fill="none" xmlns="http://www.w3.org/2000/svg">
<path d="M14.25 19H16.875C17.5712 19 18.2389 18.7234 18.7312 18.2312C19.2234 17.7389 19.5 17.0712 19.5 16.375V13.75M19.5 6.25V3.625C19.5 2.92881 19.2234 2.26113 18.7312 1.76884C18.2389 1.27656 17.5712 1 16.875 1H14.25M6.75 19H4.125C3.42881 19 2.76113 18.7234 2.26884 18.2312C1.77656 17.7389 1.5 17.0712 1.5 16.375V13.75M1.5 6.25V3.625C1.5 2.92881 1.77656 2.26113 2.26884 1.76884C2.76113 1.27656 3.42881 1 4.125 1H6.75" stroke="currentColor" stroke-width="1.5" stroke-linecap="round" stroke-linejoin="round"/>
<path d="M15.3322 10.0006H14.1954C14.0447 10.0006 13.9001 10.0575 13.7935 10.1588C13.6869 10.26 13.6271 10.3974 13.6271 10.5406C13.6271 10.6838 13.6869 10.8211 13.7935 10.9224C13.9001 11.0236 14.0447 11.0805 14.1954 11.0805V12.1604H13.5214C13.5889 11.9875 13.6244 11.8048 13.6265 11.6204C13.6265 11.2639 13.5026 10.9173 13.2741 10.6344C13.0456 10.3515 12.7253 10.1482 12.3627 10.0559C12.0002 9.96361 11.6157 9.98755 11.2689 10.124C10.9221 10.2604 10.6325 10.5018 10.4448 10.8105C10.4069 10.872 10.3821 10.9399 10.372 11.0105C10.3618 11.081 10.3664 11.1528 10.3856 11.2216C10.4048 11.2905 10.4381 11.355 10.4836 11.4116C10.5291 11.4682 10.586 11.5156 10.6509 11.5512C10.7158 11.5868 10.7875 11.6099 10.8618 11.619C10.9362 11.6282 11.0117 11.6233 11.084 11.6047C11.1563 11.586 11.2241 11.554 11.2833 11.5103C11.3426 11.4667 11.3921 11.4124 11.4292 11.3505C11.4791 11.2684 11.5508 11.2002 11.6372 11.1528C11.7236 11.1055 11.8216 11.0805 11.9214 11.0805C12.0721 11.0805 12.2167 11.1374 12.3233 11.2387C12.4299 11.3399 12.4898 11.4772 12.4898 11.6204C12.4898 11.7636 12.4299 11.901 12.3233 12.0022C12.2167 12.1035 12.0721 12.1604 11.9214 12.1604C11.7707 12.1604 11.6261 12.2173 11.5195 12.3185C11.4129 12.4198 11.353 12.5571 11.353 12.7003C11.353 12.8435 11.4129 12.9809 11.5195 13.0821C11.6261 13.1834 11.7707 13.2403 11.9214 13.2403C12.0721 13.2403 12.2167 13.2971 12.3233 13.3984C12.4299 13.4997 12.4898 13.637 12.4898 13.7802C12.4898 13.9234 12.4299 14.0607 12.3233 14.162C12.2167 14.2632 12.0721 14.3201 11.9214 14.3201C11.8216 14.3201 11.7236 14.2952 11.6372 14.2478C11.5508 14.2004 11.4791 14.1322 11.4292 14.0502C11.3921 13.9883 11.3426 13.9339 11.2833 13.8903C11.2241 13.8467 11.1563 13.8146 11.084 13.796C11.0117 13.7773 10.9362 13.7724 10.8618 13.7816C10.7875 13.7908 10.7158 13.8138 10.6509 13.8494C10.586 13.885 10.5291 13.9325 10.4836 13.9891C10.4381 14.0456 10.4048 14.1102 10.3856 14.179C10.3664 14.2479 10.3618 14.3196 10.372 14.3902C10.3821 14.4607 10.4069 14.5287 10.4448 14.5901C10.6325 14.8989 10.9221 15.1402 11.2689 15.2767C11.6157 15.4131 12.0002 15.437 12.3627 15.3447C12.7253 15.2525 13.0456 15.0491 13.2741 14.7662C13.5026 14.4834 13.6265 14.1368 13.6265 13.7802C13.6244 13.5958 13.5889 13.4131 13.5214 13.2403H14.1949V14.8601C14.1949 15.0033 14.2547 15.1406 14.3613 15.2419C14.4679 15.3431 14.6125 15.4 14.7632 15.4C14.914 15.4 15.0585 15.3431 15.1651 15.2419C15.2717 15.1406 15.3316 15.0033 15.3316 14.8601V11.0805C15.4823 11.0805 15.6269 11.0236 15.7335 10.9224C15.8401 10.8211 15.9 10.6838 15.9 10.5406C15.9 10.3974 15.8401 10.26 15.7335 10.1588C15.6269 10.0575 15.4829 10.0006 15.3322 10.0006ZM8.52823 9.5919C8.54593 9.66112 8.57787 9.72632 8.62222 9.78376C8.66656 9.8412 8.72243 9.88973 8.78661 9.92657C8.85078 9.96341 8.922 9.98781 8.99615 9.99839C9.0703 10.009 9.14592 10.0055 9.21865 9.98819C9.29138 9.97088 9.35979 9.94007 9.41994 9.89753C9.48008 9.855 9.53077 9.80158 9.56909 9.74035C9.6074 9.67912 9.63259 9.6113 9.64319 9.54079C9.65379 9.47027 9.6496 9.39846 9.63086 9.32949L8.63224 5.53373C8.56238 5.2671 8.40064 5.03034 8.17276 4.86113C7.94487 4.69193 7.66396 4.60001 7.37472 4.60001C7.08549 4.60001 6.80457 4.69193 6.57669 4.86113C6.34881 5.03034 6.18706 5.2671 6.11721 5.53373L5.11801 9.32949C5.09927 9.39846 5.09508 9.47027 5.10569 9.54079C5.11629 9.6113 5.14147 9.67912 5.17979 9.74035C5.21811 9.80158 5.2688 9.855 5.32894 9.89753C5.38909 9.94007 5.45749 9.97088 5.53023 9.98819C5.60296 10.0055 5.67858 10.009 5.75273 9.99839C5.82688 9.98781 5.89809 9.96341 5.96227 9.92657C6.02645 9.88973 6.08232 9.8412 6.12666 9.78376C6.17101 9.72632 6.20295 9.66112 6.22065 9.5919L6.53894 8.38082H8.20994L8.52823 9.5919ZM6.82369 7.30095L7.21984 5.79614C7.23179 5.76624 7.25303 5.74049 7.28075 5.72232C7.30846 5.70415 7.34133 5.69442 7.37501 5.69442C7.40868 5.69442 7.44155 5.70415 7.46927 5.72232C7.49698 5.74049 7.51822 5.76624 7.53017 5.79614L7.92633 7.30095H6.82369ZM11.3536 7.30095H11.922C12.0727 7.30109 12.2171 7.35802 12.3237 7.45925C12.4302 7.56048 12.4902 7.69773 12.4903 7.84088V8.38082C12.4903 8.52402 12.5502 8.66136 12.6568 8.76262C12.7634 8.86387 12.908 8.92076 13.0587 8.92076C13.2094 8.92076 13.354 8.86387 13.4606 8.76262C13.5672 8.66136 13.6271 8.52402 13.6271 8.38082V7.84088C13.6266 7.41142 13.4468 6.99966 13.1272 6.69598C12.8075 6.3923 12.374 6.2215 11.922 6.22107H11.3536C11.2028 6.22107 11.0583 6.27796 10.9517 6.37922C10.8451 6.48047 10.7852 6.61781 10.7852 6.76101C10.7852 6.90421 10.8451 7.04155 10.9517 7.1428C11.0583 7.24406 11.2028 7.30095 11.3536 7.30095ZM9.08011 12.1604H8.51174C8.36105 12.1602 8.21657 12.1033 8.11001 12.0021C8.00346 11.9009 7.94353 11.7636 7.94338 11.6204V11.0805C7.94338 10.9373 7.88349 10.8 7.7769 10.6987C7.67031 10.5975 7.52575 10.5406 7.37501 10.5406C7.22427 10.5406 7.0797 10.5975 6.97311 10.6987C6.86652 10.8 6.80664 10.9373 6.80664 11.0805V11.6204C6.80709 12.0499 6.98688 12.4617 7.30655 12.7654C7.62622 13.069 8.05966 13.2398 8.51174 13.2403H9.08011C9.23085 13.2403 9.37542 13.1834 9.48201 13.0821C9.5886 12.9809 9.64848 12.8435 9.64848 12.7003C9.64848 12.5571 9.5886 12.4198 9.48201 12.3185C9.37542 12.2173 9.23085 12.1604 9.08011 12.1604Z" stroke="none" fill="currentColor"/>
</svg>
