<svg width="36" height="36" viewBox="0 0 36 36" fill="none" xmlns="http://www.w3.org/2000/svg">
<path d="M18 3.65625C10.5877 3.65625 4.78125 6.99187 4.78125 11.25V24.75C4.78125 29.0081 10.5877 32.3438 18 32.3438C25.4123 32.3438 31.2188 29.0081 31.2188 24.75V11.25C31.2188 6.99187 25.4123 3.65625 18 3.65625ZM18 5.34375C24.2508 5.34375 29.5312 8.04797 29.5312 11.25C29.5312 14.452 24.2508 17.1562 18 17.1562C11.7492 17.1562 6.46875 14.452 6.46875 11.25C6.46875 8.04797 11.7492 5.34375 18 5.34375ZM29.5312 24.75C29.5312 27.952 24.2508 30.6562 18 30.6562C11.7492 30.6562 6.46875 27.952 6.46875 24.75V21.7673C8.71875 24.0694 12.9895 25.5938 18 25.5938C23.0105 25.5938 27.2812 24.0694 29.5312 21.7673V24.75ZM29.5312 18C29.5312 21.202 24.2508 23.9062 18 23.9062C11.7492 23.9062 6.46875 21.202 6.46875 18V15.0173C8.71875 17.3194 12.9895 18.8438 18 18.8438C23.0105 18.8438 27.2812 17.3194 29.5312 15.0173V18Z" fill="currentColor"/>
<defs>
<linearGradient id="linear-gradient" x1="4.78125" y1="32.3437" x2="34.6145" y2="27.4978" gradientUnits="userSpaceOnUse">
<stop stop-color="#5B32D0"/>
<stop offset="0.978464" stop-color="#E04EF8"/>
</linearGradient>
</defs>
</svg>
