<svg width="57" height="58" viewBox="0 0 57 58" fill="none" xmlns="http://www.w3.org/2000/svg">
  <rect stroke="none" width="57" height="58" rx="6" fill="#eeeef8"/>
  <path d="M 26.7 16 C 19.8 16 14.3 19 14.3 23 V 35.4 C 14.3 39.2 19.8 42.2 26.7 42.2 C 33.7 42.2 39.1 39.2 39.1 35.4 V 23 C 39.1 19 33.7 16 26.7 16 Z M 26.7 17.5 C 32.7 17.5 37.6 20 37.6 23 C 37.6 25.9 32.7 28.4 26.7 28.4 C 20.7 28.4 15.8 25.9 15.8 23 C 15.8 20 20.7 17.5 26.7 17.5 Z M 37.6 35.4 C 37.6 38.3 32.7 40.8 26.7 40.8 C 20.7 40.8 15.8 38.3 15.8 35.4 V 32.6 C 18 34.7 22 36.1 26.7 36.1 C 31.4 36.1 35.4 34.7 37.6 32.6 V 35.4 Z M 37.6 29.1 C 37.6 32.1 32.7 34.5 26.7 34.5 C 20.7 34.5 15.8 32.1 15.8 29.1 V 26.4 C 18 28.5 22 29.9 26.7 29.9 C 31.4 29.9 35.4 28.5 37.6 26.4 V 29.1 Z" stroke="none" fill="currentColor" viewBox="10 10 57 58"/>
  <defs>
  <linearGradient id="icon-linear-gradient" x1="4.78125" y1="32.3437" x2="34.6145" y2="27.4978" gradientUnits="userSpaceOnUse">
<stop stop-color="#5B32D0"/>
<stop offset="0.978464" stop-color="#E04EF8"/>
</linearGradient>
</defs>
</svg>