<svg xmlns="http://www.w3.org/2000/svg" width="57" height="58" viewBox="0 0 57 58" fill="none">
    <rect stroke="none" width="57" height="58" rx="6" fill="#EEEEF8"/>
  <path d="M20.0881 41.9923C19.4018 41.9923 18.7929 41.7676 18.2615 41.3183C17.7312 40.8701 17.4068 40.304 17.2883 39.6201L15.0234 26.0661C14.9495 25.6202 15.0504 25.2302 15.3261 24.8958C15.6018 24.5614 15.9673 24.3943 16.4225 24.3943H40.5775C41.0327 24.3943 41.3982 24.5614 41.6739 24.8958C41.9496 25.2313 42.0505 25.6214 41.9766 26.0661L39.7117 39.6201C39.5944 40.304 39.27 40.8701 38.7385 41.3183C38.2071 41.7676 37.5988 41.9923 36.9136 41.9923H20.0881ZM16.8853 26.1541L18.9936 39.3174C19.0393 39.5884 19.1578 39.8084 19.349 39.9773C19.5403 40.1474 19.7714 40.2325 20.0424 40.2325H36.9576C37.2274 40.2325 37.4586 40.1474 37.651 39.9773C37.8422 39.8084 37.9607 39.5884 38.0064 39.3174L40.1147 26.1541H16.8853ZM24.9804 32.3134H32.0196C32.2695 32.3134 32.4783 32.2289 32.6461 32.06C32.8139 31.891 32.8983 31.6816 32.8995 31.4317C32.8995 31.1818 32.815 30.973 32.6461 30.8052C32.4772 30.6374 32.2683 30.5536 32.0196 30.5536H24.9804C24.7305 30.5536 24.5217 30.638 24.3539 30.807C24.185 30.9747 24.1005 31.1836 24.1005 31.4335C24.1005 31.6834 24.185 31.8922 24.3539 32.06C24.5228 32.2289 24.7317 32.3134 24.9804 32.3134ZM17.9412 21.9569C17.6913 21.9569 17.4825 21.8725 17.3147 21.7035C17.1469 21.5346 17.0625 21.3252 17.0613 21.0753C17.0613 20.8266 17.1458 20.6177 17.3147 20.4488C17.4836 20.281 17.6925 20.1971 17.9412 20.1971H39.0588C39.3087 20.1971 39.5175 20.2816 39.6853 20.4505C39.8542 20.6195 39.9387 20.8289 39.9387 21.0788C39.9387 21.3275 39.8542 21.5363 39.6853 21.7053C39.5175 21.873 39.3087 21.9569 39.0588 21.9569H17.9412ZM21.4608 17.7598C21.2109 17.7598 21.0021 17.6753 20.8343 17.5064C20.6654 17.3386 20.5809 17.1298 20.5809 16.8799C20.5809 16.63 20.6654 16.4212 20.8343 16.2534C21.0021 16.0845 21.2109 16 21.4608 16H35.5392C35.7891 16 35.9979 16.0845 36.1657 16.2534C36.3335 16.4224 36.4179 16.6318 36.4191 16.8817C36.4191 17.1316 36.3346 17.3404 36.1657 17.5082C35.9968 17.6759 35.7879 17.7598 35.5392 17.7598H21.4608Z" fill="currentColor"/>
  <defs>
    <linearGradient id="icon-linear-gradient" x1="4.78125" y1="32.3437" x2="34.6145" y2="27.4978" gradientUnits="userSpaceOnUse">
<stop stop-color="#5B32D0"/>
<stop offset="0.978464" stop-color="#E04EF8"/>
</linearGradient>
</defs>
</svg>