<svg width="57" height="58" viewBox="0 0 57 58" fill="none" xmlns="http://www.w3.org/2000/svg">
<rect stroke="none" width="57" height="58" rx="6" fill="#EEEEF8"/>
<path d="M15 39.2747V17.7253C15 16.9761 15.2672 16.3348 15.8016 15.8016C16.3348 15.2672 16.9761 15 17.7253 15H39.2747C40.0239 15 40.6652 15.2672 41.1984 15.8016C41.7328 16.3348 42 16.9761 42 17.7253V39.2747C42 40.0239 41.7328 40.6652 41.1984 41.1984C40.6652 41.7328 40.0239 42 39.2747 42H17.7253C16.9761 42 16.3348 41.7328 15.8016 41.1984C15.2672 40.6652 15 40.0239 15 39.2747ZM16.6875 23.6974H40.3125V17.7253C40.3125 17.4227 40.2152 17.1741 40.0206 16.9794C39.8259 16.7848 39.5773 16.6875 39.2747 16.6875H17.7253C17.4227 16.6875 17.1741 16.7848 16.9794 16.9794C16.7848 17.1741 16.6875 17.4227 16.6875 17.7253V23.6974ZM25.1216 32.0049H31.8784V25.3849H25.1216V32.0049ZM25.1216 40.3125H31.8784V33.6924H25.1216V40.3125ZM16.6875 32.0049H23.4341V25.3849H16.6875V32.0049ZM33.5659 32.0049H40.3125V25.3849H33.5659V32.0049ZM17.7253 40.3125H23.4341V33.6924H16.6875V39.2747C16.6875 39.5773 16.7848 39.8259 16.9794 40.0206C17.1741 40.2152 17.4227 40.3125 17.7253 40.3125ZM33.5659 40.3125H39.2747C39.5773 40.3125 39.8259 40.2152 40.0206 40.0206C40.2152 39.8259 40.3125 39.5773 40.3125 39.2747V33.6924H33.5659V40.3125Z" fill="currentColor"/>
  <defs>
  <linearGradient id="icon-linear-gradient" x1="4.78125" y1="32.3437" x2="34.6145" y2="27.4978" gradientUnits="userSpaceOnUse">
<stop stop-color="#5B32D0"/>
<stop offset="0.978464" stop-color="#E04EF8"/>
</linearGradient>
</defs>
</svg>
