<svg width="20" height="16" viewBox="0 0 20 16" fill="none" xmlns="http://www.w3.org/2000/svg">
<path d="M18.8765 7.49109C19.0387 7.87213 19.0413 8.29129 18.8832 8.67398C18.1793 10.3769 15.6947 15.1625 10 15.1625C4.30527 15.1625 1.8207 10.3769 1.11682 8.67398C0.95866 8.29129 0.961315 7.87213 1.12345 7.49109C1.84705 5.7904 4.38375 1 10 1C15.6162 1 18.1529 5.7904 18.8765 7.49109Z" stroke="#5420E8" stroke-width="1.5"/>
<path d="M9.99963 11.3689C11.8154 11.3689 13.2873 9.89693 13.2873 8.08117C13.2873 6.26542 11.8154 4.79346 9.99963 4.79346C8.18387 4.79346 6.71191 6.26542 6.71191 8.08117C6.71191 9.89693 8.18387 11.3689 9.99963 11.3689Z" stroke="#5420E8" stroke-width="1.5"/>
<path d="M7.77815 8.41308C7.57531 8.41308 7.40934 8.57904 7.40934 8.78189C7.40934 8.98474 7.57531 9.1507 7.77815 9.1507C7.981 9.1507 8.14697 8.98474 8.14697 8.78189C8.14697 8.57904 7.981 8.41308 7.77815 8.41308ZM7.77815 9.88833C7.57531 9.88833 7.40934 10.0543 7.40934 10.2571C7.40934 10.46 7.57531 10.626 7.77815 10.626C7.981 10.626 8.14697 10.46 8.14697 10.2571C8.14697 10.0543 7.981 9.88833 7.77815 9.88833ZM7.77815 6.93782C7.57531 6.93782 7.40934 7.10379 7.40934 7.30663C7.40934 7.50948 7.57531 7.67545 7.77815 7.67545C7.981 7.67545 8.14697 7.50948 8.14697 7.30663C8.14697 7.10379 7.981 6.93782 7.77815 6.93782ZM6.67171 7.12223C6.56844 7.12223 6.4873 7.20337 6.4873 7.30663C6.4873 7.4099 6.56844 7.49104 6.67171 7.49104C6.77498 7.49104 6.85612 7.4099 6.85612 7.30663C6.85612 7.20337 6.77498 7.12223 6.67171 7.12223ZM7.77815 5.46256C7.57531 5.46256 7.40934 5.62853 7.40934 5.83138C7.40934 6.03422 7.57531 6.20019 7.77815 6.20019C7.981 6.20019 8.14697 6.03422 8.14697 5.83138C8.14697 5.62853 7.981 5.46256 7.77815 5.46256ZM13.3104 7.49104C13.4136 7.49104 13.4948 7.4099 13.4948 7.30663C13.4948 7.20337 13.4136 7.12223 13.3104 7.12223C13.2071 7.12223 13.126 7.20337 13.126 7.30663C13.126 7.4099 13.2071 7.49104 13.3104 7.49104ZM10.7287 6.20019C10.9315 6.20019 11.0975 6.03422 11.0975 5.83138C11.0975 5.62853 10.9315 5.46256 10.7287 5.46256C10.5258 5.46256 10.3599 5.62853 10.3599 5.83138C10.3599 6.03422 10.5258 6.20019 10.7287 6.20019ZM10.7287 4.90934C10.8319 4.90934 10.9131 4.8282 10.9131 4.72493C10.9131 4.62167 10.8319 4.54053 10.7287 4.54053C10.6254 4.54053 10.5443 4.62167 10.5443 4.72493C10.5443 4.8282 10.6254 4.90934 10.7287 4.90934ZM6.67171 8.59748C6.56844 8.59748 6.4873 8.67862 6.4873 8.78189C6.4873 8.88516 6.56844 8.9663 6.67171 8.9663C6.77498 8.9663 6.85612 8.88516 6.85612 8.78189C6.85612 8.67862 6.77498 8.59748 6.67171 8.59748ZM9.25341 11.1792C9.15014 11.1792 9.069 11.2603 9.069 11.3636C9.069 11.4669 9.15014 11.548 9.25341 11.548C9.35668 11.548 9.43782 11.4669 9.43782 11.3636C9.43782 11.2603 9.35668 11.1792 9.25341 11.1792ZM9.25341 4.90934C9.35668 4.90934 9.43782 4.8282 9.43782 4.72493C9.43782 4.62167 9.35668 4.54053 9.25341 4.54053C9.15014 4.54053 9.069 4.62167 9.069 4.72493C9.069 4.8282 9.15014 4.90934 9.25341 4.90934ZM9.25341 6.20019C9.45626 6.20019 9.62222 6.03422 9.62222 5.83138C9.62222 5.62853 9.45626 5.46256 9.25341 5.46256C9.05056 5.46256 8.8846 5.62853 8.8846 5.83138C8.8846 6.03422 9.05056 6.20019 9.25341 6.20019ZM9.25341 8.22867C8.94729 8.22867 8.70019 8.47577 8.70019 8.78189C8.70019 9.08801 8.94729 9.33511 9.25341 9.33511C9.55953 9.33511 9.80663 9.08801 9.80663 8.78189C9.80663 8.47577 9.55953 8.22867 9.25341 8.22867ZM12.2039 8.41308C12.0011 8.41308 11.8351 8.57904 11.8351 8.78189C11.8351 8.98474 12.0011 9.1507 12.2039 9.1507C12.4068 9.1507 12.5727 8.98474 12.5727 8.78189C12.5727 8.57904 12.4068 8.41308 12.2039 8.41308ZM12.2039 9.88833C12.0011 9.88833 11.8351 10.0543 11.8351 10.2571C11.8351 10.46 12.0011 10.626 12.2039 10.626C12.4068 10.626 12.5727 10.46 12.5727 10.2571C12.5727 10.0543 12.4068 9.88833 12.2039 9.88833ZM12.2039 6.93782C12.0011 6.93782 11.8351 7.10379 11.8351 7.30663C11.8351 7.50948 12.0011 7.67545 12.2039 7.67545C12.4068 7.67545 12.5727 7.50948 12.5727 7.30663C12.5727 7.10379 12.4068 6.93782 12.2039 6.93782ZM12.2039 5.46256C12.0011 5.46256 11.8351 5.62853 11.8351 5.83138C11.8351 6.03422 12.0011 6.20019 12.2039 6.20019C12.4068 6.20019 12.5727 6.03422 12.5727 5.83138C12.5727 5.62853 12.4068 5.46256 12.2039 5.46256ZM13.3104 8.59748C13.2071 8.59748 13.126 8.67862 13.126 8.78189C13.126 8.88516 13.2071 8.9663 13.3104 8.9663C13.4136 8.9663 13.4948 8.88516 13.4948 8.78189C13.4948 8.67862 13.4136 8.59748 13.3104 8.59748ZM10.7287 9.88833C10.5258 9.88833 10.3599 10.0543 10.3599 10.2571C10.3599 10.46 10.5258 10.626 10.7287 10.626C10.9315 10.626 11.0975 10.46 11.0975 10.2571C11.0975 10.0543 10.9315 9.88833 10.7287 9.88833ZM10.7287 11.1792C10.6254 11.1792 10.5443 11.2603 10.5443 11.3636C10.5443 11.4669 10.6254 11.548 10.7287 11.548C10.8319 11.548 10.9131 11.4669 10.9131 11.3636C10.9131 11.2603 10.8319 11.1792 10.7287 11.1792ZM9.25341 6.75341C8.94729 6.75341 8.70019 7.00052 8.70019 7.30663C8.70019 7.61275 8.94729 7.85985 9.25341 7.85985C9.55953 7.85985 9.80663 7.61275 9.80663 7.30663C9.80663 7.00052 9.55953 6.75341 9.25341 6.75341ZM9.25341 9.88833C9.05056 9.88833 8.8846 10.0543 8.8846 10.2571C8.8846 10.46 9.05056 10.626 9.25341 10.626C9.45626 10.626 9.62222 10.46 9.62222 10.2571C9.62222 10.0543 9.45626 9.88833 9.25341 9.88833ZM10.7287 8.22867C10.4226 8.22867 10.1754 8.47577 10.1754 8.78189C10.1754 9.08801 10.4226 9.33511 10.7287 9.33511C11.0348 9.33511 11.2819 9.08801 11.2819 8.78189C11.2819 8.47577 11.0348 8.22867 10.7287 8.22867ZM10.7287 6.75341C10.4226 6.75341 10.1754 7.00052 10.1754 7.30663C10.1754 7.61275 10.4226 7.85985 10.7287 7.85985C11.0348 7.85985 11.2819 7.61275 11.2819 7.30663C11.2819 7.00052 11.0348 6.75341 10.7287 6.75341Z" fill="#5420E8"/>
</svg>
