<svg width="15" height="15" viewBox="0 0 15 15" fill="none" xmlns="http://www.w3.org/2000/svg">
<path fill-rule="evenodd" clip-rule="evenodd" d="M0 1.66667L1.66667 0L15 13.3333L13.3333 15L0 1.66667ZM8.33333 1.66667L9.16667 0L10 1.66667L11.6667 2.5L10 3.33333L9.16667 5L8.33333 3.33333L6.66667 2.5L8.33333 1.66667ZM1.66667 10L2.5 8.33333L3.33333 10L5 10.8333L3.33333 11.6667L2.5 13.3333L1.66667 11.6667L0 10.8333L1.66667 10ZM0.833333 5L1.66667 5.83333L0.833333 6.66667L0 5.83333L0.833333 5ZM12.5 5.83333L13.3333 6.66667L12.5 7.5L11.6667 6.66667L12.5 5.83333Z" fill="url(#paint0_linear_210_1266)"/>
<defs>
<linearGradient id="paint0_linear_210_1266" x1="-2.16795e-07" y1="15" x2="16.8498" y2="12.0301" gradientUnits="userSpaceOnUse">
<stop stop-color="#5B32D0"/>
<stop offset="0.978464" stop-color="#E04EF8"/>
</linearGradient>
</defs>
</svg>
