<svg width="60" height="11" viewBox="0 0 60 11" fill="none" xmlns="http://www.w3.org/2000/svg">
<path d="M-0.00399995 10V1.06H3.152C3.744 1.06 4.264 1.172 4.712 1.396C5.16 1.62 5.508 1.94 5.756 2.356C6.012 2.772 6.14 3.26 6.14 3.82C6.14 4.38 6.012 4.868 5.756 5.284C5.508 5.692 5.16 6.012 4.712 6.244C4.272 6.468 3.752 6.58 3.152 6.58H1.172V10H-0.00399995ZM1.172 5.5H3.188C3.548 5.5 3.86 5.432 4.124 5.296C4.388 5.16 4.592 4.964 4.736 4.708C4.88 4.452 4.952 4.156 4.952 3.82C4.952 3.476 4.88 3.18 4.736 2.932C4.592 2.676 4.388 2.48 4.124 2.344C3.86 2.208 3.548 2.14 3.188 2.14H1.172V5.5ZM7.59838 10V3.532H8.69038V4.72L8.57038 4.552C8.72238 4.184 8.95438 3.912 9.26638 3.736C9.57838 3.552 9.95838 3.46 10.4064 3.46H10.8024V4.516H10.2384C9.78238 4.516 9.41438 4.66 9.13438 4.948C8.85438 5.228 8.71438 5.628 8.71438 6.148V10H7.59838ZM14.7697 10.144C14.1457 10.144 13.5897 9.996 13.1017 9.7C12.6137 9.404 12.2297 9 11.9497 8.488C11.6697 7.968 11.5297 7.388 11.5297 6.748C11.5297 6.1 11.6657 5.524 11.9377 5.02C12.2177 4.516 12.5937 4.12 13.0657 3.832C13.5457 3.536 14.0817 3.388 14.6737 3.388C15.1537 3.388 15.5777 3.476 15.9457 3.652C16.3217 3.82 16.6377 4.052 16.8937 4.348C17.1577 4.636 17.3577 4.968 17.4937 5.344C17.6377 5.712 17.7097 6.096 17.7097 6.496C17.7097 6.584 17.7017 6.684 17.6857 6.796C17.6777 6.9 17.6657 7 17.6497 7.096H12.3457V6.136H17.0017L16.4737 6.568C16.5457 6.152 16.5057 5.78 16.3537 5.452C16.2017 5.124 15.9777 4.864 15.6817 4.672C15.3857 4.48 15.0497 4.384 14.6737 4.384C14.2977 4.384 13.9537 4.48 13.6417 4.672C13.3297 4.864 13.0857 5.14 12.9097 5.5C12.7417 5.852 12.6737 6.272 12.7057 6.76C12.6737 7.232 12.7457 7.648 12.9217 8.008C13.1057 8.36 13.3617 8.636 13.6897 8.836C14.0257 9.028 14.3897 9.124 14.7817 9.124C15.2137 9.124 15.5777 9.024 15.8737 8.824C16.1697 8.624 16.4097 8.368 16.5937 8.056L17.5297 8.536C17.4017 8.832 17.2017 9.104 16.9297 9.352C16.6657 9.592 16.3497 9.784 15.9817 9.928C15.6217 10.072 15.2177 10.144 14.7697 10.144ZM20.8476 10L18.3156 3.532H19.5636L21.5916 9.004H21.1596L23.1996 3.532H24.4476L21.9036 10H20.8476ZM25.446 10V3.532H26.562V10H25.446ZM25.446 2.5V1.06H26.562V2.5H25.446ZM31.2697 10.144C30.6457 10.144 30.0897 9.996 29.6017 9.7C29.1137 9.404 28.7297 9 28.4497 8.488C28.1697 7.968 28.0297 7.388 28.0297 6.748C28.0297 6.1 28.1657 5.524 28.4377 5.02C28.7177 4.516 29.0937 4.12 29.5657 3.832C30.0457 3.536 30.5817 3.388 31.1737 3.388C31.6537 3.388 32.0777 3.476 32.4457 3.652C32.8217 3.82 33.1377 4.052 33.3937 4.348C33.6577 4.636 33.8577 4.968 33.9937 5.344C34.1377 5.712 34.2097 6.096 34.2097 6.496C34.2097 6.584 34.2017 6.684 34.1857 6.796C34.1777 6.9 34.1657 7 34.1497 7.096H28.8457V6.136H33.5017L32.9737 6.568C33.0457 6.152 33.0057 5.78 32.8537 5.452C32.7017 5.124 32.4777 4.864 32.1817 4.672C31.8857 4.48 31.5497 4.384 31.1737 4.384C30.7977 4.384 30.4537 4.48 30.1417 4.672C29.8297 4.864 29.5857 5.14 29.4097 5.5C29.2417 5.852 29.1737 6.272 29.2057 6.76C29.1737 7.232 29.2457 7.648 29.4217 8.008C29.6057 8.36 29.8617 8.636 30.1897 8.836C30.5257 9.028 30.8897 9.124 31.2817 9.124C31.7137 9.124 32.0777 9.024 32.3737 8.824C32.6697 8.624 32.9097 8.368 33.0937 8.056L34.0297 8.536C33.9017 8.832 33.7017 9.104 33.4297 9.352C33.1657 9.592 32.8497 9.784 32.4817 9.928C32.1217 10.072 31.7177 10.144 31.2697 10.144ZM37.1528 10L34.9328 3.532H36.1688L37.9328 8.944L37.5008 8.932L39.2288 3.532H40.2848L42.0128 8.932L41.5808 8.944L43.3568 3.532H44.5808L42.3608 10H41.2928L39.5888 4.6H39.9248L38.2208 10H37.1528ZM48.4377 10.144C47.8137 10.144 47.2577 9.996 46.7697 9.7C46.2817 9.404 45.8977 9 45.6177 8.488C45.3377 7.968 45.1977 7.388 45.1977 6.748C45.1977 6.1 45.3337 5.524 45.6057 5.02C45.8857 4.516 46.2617 4.12 46.7337 3.832C47.2137 3.536 47.7497 3.388 48.3417 3.388C48.8217 3.388 49.2457 3.476 49.6137 3.652C49.9897 3.82 50.3057 4.052 50.5617 4.348C50.8257 4.636 51.0257 4.968 51.1617 5.344C51.3057 5.712 51.3777 6.096 51.3777 6.496C51.3777 6.584 51.3697 6.684 51.3537 6.796C51.3457 6.9 51.3337 7 51.3177 7.096H46.0137V6.136H50.6697L50.1417 6.568C50.2137 6.152 50.1737 5.78 50.0217 5.452C49.8697 5.124 49.6457 4.864 49.3497 4.672C49.0537 4.48 48.7177 4.384 48.3417 4.384C47.9657 4.384 47.6217 4.48 47.3097 4.672C46.9977 4.864 46.7537 5.14 46.5777 5.5C46.4097 5.852 46.3417 6.272 46.3737 6.76C46.3417 7.232 46.4137 7.648 46.5897 8.008C46.7737 8.36 47.0297 8.636 47.3577 8.836C47.6937 9.028 48.0577 9.124 48.4497 9.124C48.8817 9.124 49.2457 9.024 49.5417 8.824C49.8377 8.624 50.0777 8.368 50.2617 8.056L51.1977 8.536C51.0697 8.832 50.8697 9.104 50.5977 9.352C50.3337 9.592 50.0177 9.784 49.6497 9.928C49.2897 10.072 48.8857 10.144 48.4377 10.144ZM55.7728 10.144C55.1648 10.144 54.6168 9.996 54.1288 9.7C53.6488 9.404 53.2688 9 52.9888 8.488C52.7088 7.976 52.5688 7.404 52.5688 6.772C52.5688 6.124 52.7088 5.548 52.9888 5.044C53.2688 4.532 53.6488 4.128 54.1288 3.832C54.6168 3.536 55.1648 3.388 55.7728 3.388C56.3088 3.388 56.7848 3.504 57.2008 3.736C57.6168 3.96 57.9448 4.264 58.1848 4.648L58.0048 4.924V0.916H59.1328V10H58.0408V8.62L58.1848 8.812C57.9608 9.236 57.6328 9.564 57.2008 9.796C56.7768 10.028 56.3008 10.144 55.7728 10.144ZM55.8688 9.064C56.2768 9.064 56.6408 8.964 56.9608 8.764C57.2808 8.564 57.5328 8.292 57.7168 7.948C57.9088 7.596 58.0048 7.204 58.0048 6.772C58.0048 6.332 57.9088 5.94 57.7168 5.596C57.5328 5.244 57.2808 4.968 56.9608 4.768C56.6408 4.568 56.2768 4.468 55.8688 4.468C55.4688 4.468 55.1048 4.572 54.7768 4.78C54.4568 4.98 54.2048 5.252 54.0208 5.596C53.8368 5.932 53.7448 6.324 53.7448 6.772C53.7448 7.204 53.8368 7.596 54.0208 7.948C54.2048 8.292 54.4568 8.564 54.7768 8.764C55.0968 8.964 55.4608 9.064 55.8688 9.064Z" fill="url(#paint0_linear_210_1364)"/>
<defs>
<linearGradient id="paint0_linear_210_1364" x1="-1" y1="13" x2="45.6721" y2="-20.4539" gradientUnits="userSpaceOnUse">
<stop stop-color="#5B32D0"/>
<stop offset="0.978464" stop-color="#E04EF8"/>
</linearGradient>
</defs>
</svg>
