<svg width="79" height="28" viewBox="0 0 79 28" fill="none" xmlns="http://www.w3.org/2000/svg">
<path opacity="0.5" d="M14.1002 24.5261L13.177 25.4442C12.9258 25.694 12.9258 26.099 13.177 26.3487L14.1002 27.2668C14.3514 27.5166 14.7587 27.5166 15.0098 27.2668L15.9331 26.3487C16.1843 26.099 16.1843 25.694 15.9331 25.4442L15.0098 24.5261C14.7587 24.2764 14.3514 24.2764 14.1002 24.5261Z" fill="white"/>
<path opacity="0.75" d="M15.1154 16.0785L16.576 17.531C16.886 17.8392 16.886 18.339 16.576 18.6465L15.1154 20.0989C14.8054 20.4072 14.3027 20.4072 13.9936 20.0989L12.5337 18.6473C12.2238 18.339 12.2238 17.84 12.5337 17.5318L13.9944 16.0793C14.3043 15.7711 14.807 15.7711 15.117 16.0793L15.1154 16.0785Z" fill="white"/>
<path opacity="0.6" d="M10.1741 20.3627L8.99021 21.5399C8.73903 21.7897 8.73903 22.1947 8.99021 22.4444L10.1735 23.6211C10.4247 23.8709 10.8319 23.8709 11.0831 23.6211L12.267 22.4439C12.5182 22.1941 12.5182 21.7891 12.267 21.5394L11.0837 20.3627C10.8325 20.1129 10.4253 20.1129 10.1741 20.3627Z" fill="white"/>
<path opacity="0.6" d="M18.0236 20.3681L16.8403 21.5448C16.5891 21.7946 16.5891 22.1996 16.8403 22.4493L18.0242 23.6266C18.2754 23.8763 18.6826 23.8763 18.9338 23.6266L20.1171 22.4499C20.3683 22.2001 20.3683 21.7952 20.1171 21.5454L18.9332 20.3681C18.682 20.1184 18.2748 20.1184 18.0236 20.3681Z" fill="white"/>
<path d="M11.7533 2.4967L8.3052 5.92464C8.05386 6.17456 8.05386 6.5794 8.3052 6.82933L10.1714 8.68503C10.4227 8.93496 10.8298 8.93496 11.0812 8.68503L14.0739 5.70904C14.3252 5.45911 14.7324 5.45911 14.9837 5.70904L17.9957 8.7042C18.2471 8.95413 18.6542 8.95413 18.9055 8.7042L20.7725 6.8477C21.0238 6.59777 21.0238 6.19293 20.7725 5.943L14.9845 0.187447C14.7332 -0.0624822 14.326 -0.0624822 14.0747 0.187447L11.7533 2.4959V2.4967Z" fill="white"/>
<path opacity="0.85" d="M10.1732 11.8769L8.30686 13.7328C8.05568 13.9826 8.05568 14.3875 8.30686 14.6373L10.1727 16.4927C10.4238 16.7424 10.8311 16.7424 11.0823 16.4927L12.9486 14.6368C13.1998 14.387 13.1998 13.982 12.9486 13.7322L11.0828 11.8769C10.8317 11.6271 10.4244 11.6271 10.1732 11.8769Z" fill="white"/>
<path opacity="0.9" d="M6.2472 7.97308L4.38083 9.82899C4.12965 10.0788 4.12965 10.4837 4.38084 10.7335L6.24664 12.5889C6.49782 12.8386 6.90507 12.8386 7.15625 12.5889L9.02262 10.7329C9.27381 10.4832 9.2738 10.0782 9.02262 9.82843L7.15682 7.97308C6.90564 7.7233 6.49839 7.7233 6.2472 7.97308Z" fill="white"/>
<path opacity="0.85" d="M2.32118 11.8764L0.45481 13.7323C0.203626 13.9821 0.203622 14.3871 0.454807 14.6368L2.32061 16.4922C2.57179 16.742 2.97904 16.742 3.23023 16.4922L5.09659 14.6363C5.34778 14.3865 5.34778 13.9815 5.0966 13.7317L3.23079 11.8764C2.97961 11.6266 2.57236 11.6266 2.32118 11.8764Z" fill="white"/>
<path opacity="0.85" d="M18.025 11.8774L16.1587 13.7333C15.9075 13.9831 15.9075 14.388 16.1587 14.6378L18.0245 16.4932C18.2757 16.7429 18.6829 16.7429 18.9341 16.4932L20.8005 14.6372C21.0516 14.3875 21.0516 13.9825 20.8005 13.7327L18.9347 11.8774C18.6835 11.6276 18.2762 11.6276 18.025 11.8774Z" fill="white"/>
<path opacity="0.9" d="M21.9491 7.97308L20.0827 9.82899C19.8316 10.0788 19.8316 10.4837 20.0827 10.7335L21.9485 12.5889C22.1997 12.8386 22.607 12.8386 22.8582 12.5889L24.7245 10.7329C24.9757 10.4832 24.9757 10.0782 24.7245 9.82842L22.8587 7.97308C22.6075 7.7233 22.2003 7.7233 21.9491 7.97308Z" fill="white"/>
<path opacity="0.9" d="M14.0993 7.97308L12.2329 9.82899C11.9817 10.0788 11.9817 10.4837 12.2329 10.7335L14.0987 12.5889C14.3499 12.8386 14.7571 12.8386 15.0083 12.5889L16.8747 10.7329C17.1259 10.4832 17.1259 10.0782 16.8747 9.82842L15.0089 7.97308C14.7577 7.7233 14.3504 7.7233 14.0993 7.97308Z" fill="white"/>
<path opacity="0.85" d="M25.8749 11.8769L24.0085 13.7328C23.7573 13.9826 23.7573 14.3875 24.0085 14.6373L25.8743 16.4927C26.1255 16.7424 26.5328 16.7424 26.7839 16.4927L28.6503 14.6368C28.9015 14.387 28.9015 13.982 28.6503 13.7322L26.7845 11.8769C26.5333 11.6271 26.1261 11.6271 25.8749 11.8769Z" fill="white"/>
<path opacity="0.75" d="M21.9493 16.1973L20.5014 17.6371C20.2503 17.8869 20.2503 18.2918 20.5014 18.5416L21.9493 19.9814C22.2005 20.2312 22.6078 20.2312 22.859 19.9814L24.3069 18.5416C24.558 18.2918 24.558 17.8869 24.3069 17.6371L22.859 16.1973C22.6078 15.9475 22.2005 15.9475 21.9493 16.1973Z" fill="white"/>
<path opacity="0.75" d="M6.24743 16.1968L4.79954 17.6366C4.54835 17.8864 4.54835 18.2914 4.79954 18.5411L6.24743 19.9809C6.49862 20.2307 6.90587 20.2307 7.15705 19.9809L8.60495 18.5411C8.85614 18.2914 8.85613 17.8864 8.60495 17.6366L7.15705 16.1968C6.90587 15.947 6.49862 15.947 6.24743 16.1968Z" fill="white"/>
<path d="M34.6492 13.8481C34.6492 8.84723 38.4788 5.19727 43.6496 5.19727C47.5034 5.19727 50.3518 7.20219 51.2854 9.68026L48.0061 11.1673C47.384 9.54507 45.8041 8.35125 43.6496 8.35125C40.4896 8.35125 38.3594 10.5818 38.3594 13.8481C38.3594 17.1145 40.4896 19.3678 43.6496 19.3678C45.8041 19.3678 47.3831 18.174 48.0061 16.5518L51.2854 18.0388C50.3518 20.5169 47.5034 22.5218 43.6496 22.5218C38.5273 22.5218 34.6492 18.8271 34.6492 13.8481Z" fill="white"/>
<path d="M53.1501 5.46729H56.741V8.84688H53.1501V5.46729ZM53.1501 11.1277H56.741V22.2511H53.1501V11.1277Z" fill="white"/>
<path d="M59.3958 5.46771H66.9355C70.6215 5.46771 72.4315 7.00954 72.4315 10.0859C72.4315 11.3875 71.4241 12.9923 69.8315 13.3842C71.4979 13.5523 73.533 14.62 73.533 17.194C73.533 20.506 71.0767 22.2506 66.9355 22.2506H59.3958V5.4668V5.46771ZM67.1995 11.7757C68.3486 11.7757 69.09 11.0998 69.09 10.0859C69.09 9.07201 68.3476 8.39609 67.1995 8.39609H63.106V11.7757H67.1995ZM67.3674 19.2099C68.8513 19.2099 69.8325 18.3312 69.8325 17.025C69.8325 15.7189 68.8513 14.8173 67.3674 14.8173H63.1069V19.2099H67.3674Z" fill="white"/>
<path d="M75.4092 5.46729H79V8.84688H75.4092V5.46729ZM75.4092 11.1277H79V22.2511H75.4092V11.1277Z" fill="white"/>
</svg>