<svg width="84" height="60" viewBox="0 0 84 60" fill="none" xmlns="http://www.w3.org/2000/svg">
<path d="M0 28.2833C3.02083 27.7542 3.625 26.4333 3.625 20.4208V7.86667C3.625 2.775 6.64167 0 12.2125 0H15.0292V3.63333H13.2833C9.25833 3.63333 7.7125 5.02083 7.7125 8.525V18.9667C7.7125 27.1625 7.24167 28.6125 4.225 30C7.3125 31.4542 7.7125 32.8417 7.7125 41.0333V51.475C7.7125 54.9792 9.25833 56.3667 13.2833 56.3667H15.0292V60H12.2125C6.64167 60 3.625 57.225 3.625 52.1375V39.5833C3.625 33.5708 3.02083 32.3167 0 31.7208L0 28.2833Z" fill="white"/>
<path d="M83.3208 31.7167C80.3 32.3125 79.6958 33.5667 79.6958 39.5792V52.1333C79.6958 57.2208 76.675 59.9958 71.1083 59.9958H68.2917V56.3625H70.0375C74.0625 56.3625 75.6083 54.975 75.6083 51.4708V41.0292C75.6083 32.8333 76.0125 31.4458 79.0958 29.9958C76.075 28.6083 75.6083 27.1542 75.6083 18.9625V8.52083C75.6083 5.01667 74.0667 3.62917 70.0375 3.62917H68.2917V0H71.1083C76.6792 0 79.6958 2.775 79.6958 7.8625V20.4167C79.6958 26.4292 80.3 27.75 83.3208 28.2792V31.7167Z" fill="white"/>
<path d="M51.9292 30.85L57.7333 20.9417L51.9292 30.85Z" fill="white"/>
<path d="M41.8667 48.0084L30.7167 28.9834L41.8667 48.0084Z" fill="white"/>
<path d="M41.8667 3.85425C27.225 3.85425 15.3167 15.5834 15.3167 30.0042C15.3167 44.4251 27.2292 56.1501 41.8667 56.1501C56.5042 56.1501 68.4167 44.4209 68.4167 30.0042C68.4167 15.5876 56.5042 3.85425 41.8667 3.85425ZM41.8667 7.95008C49.2125 7.95008 55.7458 11.4542 59.8292 16.8501H23.9042C27.9917 11.4501 34.5208 7.95008 41.8667 7.95008ZM57.7333 20.9459L51.925 30.8542L41.8667 48.0126L30.7125 28.9876L26 20.9459H57.7375H57.7333ZM19.4708 30.0042C19.4708 26.8751 20.1417 23.8959 21.3417 21.1959L22.3958 22.9959L38.2625 50.0626L39.35 51.9167C28.1833 50.6834 19.4708 41.3292 19.4708 30.0084V30.0042ZM44.3792 51.9126L45.4667 50.0584L61.3333 22.9917L62.3875 21.1917C63.5875 23.8917 64.2583 26.8709 64.2583 30.0001C64.2583 41.3209 55.5458 50.6751 44.3792 51.9084V51.9126Z" fill="white"/>
</svg>
